<mxfile host="app.diagrams.net" modified="2023-03-23T05:03:51.154Z" agent="5.0 (Windows NT 10.0; Win64; x64) AppleWebKit/537.36 (KHTML, like Gecko) Chrome/111.0.0.0 Safari/537.36 Edg/111.0.1661.44" etag="SoT83zqbdkPJAsFJiPGZ" version="21.0.8" type="github">
  <diagram name="第 1 页" id="20NGYwwMfANf0kbmn8ul">
    <mxGraphModel dx="1620" dy="927" grid="1" gridSize="10" guides="1" tooltips="1" connect="1" arrows="1" fold="1" page="1" pageScale="1" pageWidth="827" pageHeight="1169" math="0" shadow="0">
      <root>
        <mxCell id="0" />
        <mxCell id="1" parent="0" />
        <mxCell id="ZeIxtWrp5TI6K73QWDRL-73" value="" style="rounded=0;whiteSpace=wrap;html=1;dashed=1;dashPattern=12 12;" vertex="1" parent="1">
          <mxGeometry x="20" y="680" width="780" height="90" as="geometry" />
        </mxCell>
        <mxCell id="ZeIxtWrp5TI6K73QWDRL-72" value="" style="rounded=0;whiteSpace=wrap;html=1;dashed=1;dashPattern=12 12;" vertex="1" parent="1">
          <mxGeometry x="20" y="590" width="780" height="90" as="geometry" />
        </mxCell>
        <mxCell id="ZeIxtWrp5TI6K73QWDRL-71" value="" style="rounded=0;whiteSpace=wrap;html=1;dashed=1;dashPattern=12 12;" vertex="1" parent="1">
          <mxGeometry x="20" y="410" width="780" height="180" as="geometry" />
        </mxCell>
        <mxCell id="ZeIxtWrp5TI6K73QWDRL-70" value="" style="rounded=0;whiteSpace=wrap;html=1;dashed=1;dashPattern=12 12;" vertex="1" parent="1">
          <mxGeometry x="20" y="320" width="780" height="90" as="geometry" />
        </mxCell>
        <mxCell id="ZeIxtWrp5TI6K73QWDRL-66" value="" style="rounded=0;whiteSpace=wrap;html=1;dashed=1;dashPattern=12 12;" vertex="1" parent="1">
          <mxGeometry x="20" y="160" width="780" height="160" as="geometry" />
        </mxCell>
        <mxCell id="ZeIxtWrp5TI6K73QWDRL-56" value="" style="rounded=0;whiteSpace=wrap;html=1;" vertex="1" parent="1">
          <mxGeometry x="160" y="690" width="620" height="70" as="geometry" />
        </mxCell>
        <mxCell id="ZeIxtWrp5TI6K73QWDRL-47" value="" style="rounded=0;whiteSpace=wrap;html=1;" vertex="1" parent="1">
          <mxGeometry x="160" y="600" width="620" height="80" as="geometry" />
        </mxCell>
        <mxCell id="ZeIxtWrp5TI6K73QWDRL-15" value="" style="rounded=0;whiteSpace=wrap;html=1;movable=1;resizable=1;rotatable=1;deletable=1;editable=1;locked=0;connectable=1;" vertex="1" parent="1">
          <mxGeometry x="160" y="415" width="620" height="175" as="geometry" />
        </mxCell>
        <mxCell id="ZeIxtWrp5TI6K73QWDRL-46" value="" style="rounded=0;whiteSpace=wrap;html=1;dashed=1;" vertex="1" parent="1">
          <mxGeometry x="650" y="425" width="110" height="155" as="geometry" />
        </mxCell>
        <mxCell id="ZeIxtWrp5TI6K73QWDRL-45" value="" style="rounded=0;whiteSpace=wrap;html=1;dashed=1;" vertex="1" parent="1">
          <mxGeometry x="530" y="425" width="110" height="155" as="geometry" />
        </mxCell>
        <mxCell id="ZeIxtWrp5TI6K73QWDRL-44" value="" style="rounded=0;whiteSpace=wrap;html=1;dashed=1;" vertex="1" parent="1">
          <mxGeometry x="415" y="425" width="110" height="155" as="geometry" />
        </mxCell>
        <mxCell id="ZeIxtWrp5TI6K73QWDRL-42" value="" style="rounded=0;whiteSpace=wrap;html=1;dashed=1;" vertex="1" parent="1">
          <mxGeometry x="300" y="425" width="110" height="155" as="geometry" />
        </mxCell>
        <mxCell id="ZeIxtWrp5TI6K73QWDRL-41" value="" style="rounded=0;whiteSpace=wrap;html=1;dashed=1;" vertex="1" parent="1">
          <mxGeometry x="180" y="425" width="110" height="155" as="geometry" />
        </mxCell>
        <mxCell id="ZeIxtWrp5TI6K73QWDRL-6" value="" style="rounded=0;whiteSpace=wrap;html=1;" vertex="1" parent="1">
          <mxGeometry x="160" y="170" width="620" height="150" as="geometry" />
        </mxCell>
        <mxCell id="ZeIxtWrp5TI6K73QWDRL-1" value="牧场管理" style="rounded=0;whiteSpace=wrap;html=1;" vertex="1" parent="1">
          <mxGeometry x="170" y="230" width="120" height="60" as="geometry" />
        </mxCell>
        <mxCell id="ZeIxtWrp5TI6K73QWDRL-9" value="" style="rounded=0;whiteSpace=wrap;html=1;" vertex="1" parent="1">
          <mxGeometry x="310" y="190" width="440" height="110" as="geometry" />
        </mxCell>
        <mxCell id="ZeIxtWrp5TI6K73QWDRL-2" value="养殖信息管理" style="rounded=0;whiteSpace=wrap;html=1;" vertex="1" parent="1">
          <mxGeometry x="320" y="230" width="120" height="60" as="geometry" />
        </mxCell>
        <mxCell id="ZeIxtWrp5TI6K73QWDRL-3" value="饲喂信息管理" style="rounded=0;whiteSpace=wrap;html=1;" vertex="1" parent="1">
          <mxGeometry x="470" y="230" width="120" height="60" as="geometry" />
        </mxCell>
        <mxCell id="ZeIxtWrp5TI6K73QWDRL-4" value="体重信息管理" style="rounded=0;whiteSpace=wrap;html=1;" vertex="1" parent="1">
          <mxGeometry x="610" y="230" width="120" height="60" as="geometry" />
        </mxCell>
        <mxCell id="ZeIxtWrp5TI6K73QWDRL-11" value="" style="rounded=0;whiteSpace=wrap;html=1;" vertex="1" parent="1">
          <mxGeometry x="160" y="330" width="620" height="80" as="geometry" />
        </mxCell>
        <mxCell id="ZeIxtWrp5TI6K73QWDRL-10" value="养殖管理" style="text;html=1;strokeColor=none;fillColor=none;align=center;verticalAlign=middle;whiteSpace=wrap;rounded=0;" vertex="1" parent="1">
          <mxGeometry x="500" y="200" width="60" height="30" as="geometry" />
        </mxCell>
        <mxCell id="ZeIxtWrp5TI6K73QWDRL-12" value="HTTP" style="rounded=0;whiteSpace=wrap;html=1;" vertex="1" parent="1">
          <mxGeometry x="230" y="340" width="120" height="60" as="geometry" />
        </mxCell>
        <mxCell id="ZeIxtWrp5TI6K73QWDRL-13" value="TCP" style="rounded=0;whiteSpace=wrap;html=1;" vertex="1" parent="1">
          <mxGeometry x="600" y="340" width="120" height="60" as="geometry" />
        </mxCell>
        <mxCell id="ZeIxtWrp5TI6K73QWDRL-14" value="接入层" style="text;html=1;strokeColor=none;fillColor=none;align=center;verticalAlign=middle;whiteSpace=wrap;rounded=0;" vertex="1" parent="1">
          <mxGeometry x="440" y="355" width="60" height="30" as="geometry" />
        </mxCell>
        <mxCell id="ZeIxtWrp5TI6K73QWDRL-17" value="业务管理" style="text;html=1;strokeColor=none;fillColor=none;align=center;verticalAlign=middle;whiteSpace=wrap;rounded=0;" vertex="1" parent="1">
          <mxGeometry x="320" y="440" width="60" height="30" as="geometry" />
        </mxCell>
        <mxCell id="ZeIxtWrp5TI6K73QWDRL-18" value="系统管理" style="text;html=1;strokeColor=none;fillColor=none;align=center;verticalAlign=middle;whiteSpace=wrap;rounded=0;" vertex="1" parent="1">
          <mxGeometry x="200" y="440" width="60" height="30" as="geometry" />
        </mxCell>
        <mxCell id="ZeIxtWrp5TI6K73QWDRL-19" value="认证管理" style="text;html=1;strokeColor=none;fillColor=none;align=center;verticalAlign=middle;whiteSpace=wrap;rounded=0;" vertex="1" parent="1">
          <mxGeometry x="440" y="440" width="60" height="30" as="geometry" />
        </mxCell>
        <mxCell id="ZeIxtWrp5TI6K73QWDRL-20" value="区块链管理" style="text;html=1;strokeColor=none;fillColor=none;align=center;verticalAlign=middle;whiteSpace=wrap;rounded=0;" vertex="1" parent="1">
          <mxGeometry x="540" y="440" width="70" height="30" as="geometry" />
        </mxCell>
        <mxCell id="ZeIxtWrp5TI6K73QWDRL-21" value="数据库管理" style="text;html=1;strokeColor=none;fillColor=none;align=center;verticalAlign=middle;whiteSpace=wrap;rounded=0;" vertex="1" parent="1">
          <mxGeometry x="660" y="440" width="70" height="30" as="geometry" />
        </mxCell>
        <mxCell id="ZeIxtWrp5TI6K73QWDRL-24" value="" style="group" vertex="1" connectable="0" parent="1">
          <mxGeometry x="190" y="480" width="90" height="90" as="geometry" />
        </mxCell>
        <mxCell id="ZeIxtWrp5TI6K73QWDRL-22" value="角色管理" style="rounded=0;whiteSpace=wrap;html=1;" vertex="1" parent="ZeIxtWrp5TI6K73QWDRL-24">
          <mxGeometry y="30" width="90" height="30" as="geometry" />
        </mxCell>
        <mxCell id="ZeIxtWrp5TI6K73QWDRL-23" value="用户管理" style="rounded=0;whiteSpace=wrap;html=1;" vertex="1" parent="ZeIxtWrp5TI6K73QWDRL-24">
          <mxGeometry y="60" width="90" height="30" as="geometry" />
        </mxCell>
        <mxCell id="ZeIxtWrp5TI6K73QWDRL-25" value="" style="group" vertex="1" connectable="0" parent="1">
          <mxGeometry x="310" y="480" width="90" height="90" as="geometry" />
        </mxCell>
        <mxCell id="ZeIxtWrp5TI6K73QWDRL-26" value="牧场管理" style="rounded=0;whiteSpace=wrap;html=1;" vertex="1" parent="ZeIxtWrp5TI6K73QWDRL-25">
          <mxGeometry width="90" height="30" as="geometry" />
        </mxCell>
        <mxCell id="ZeIxtWrp5TI6K73QWDRL-27" value="养殖管理" style="rounded=0;whiteSpace=wrap;html=1;" vertex="1" parent="ZeIxtWrp5TI6K73QWDRL-25">
          <mxGeometry y="30" width="90" height="30" as="geometry" />
        </mxCell>
        <mxCell id="ZeIxtWrp5TI6K73QWDRL-28" value="---" style="rounded=0;whiteSpace=wrap;html=1;" vertex="1" parent="ZeIxtWrp5TI6K73QWDRL-25">
          <mxGeometry y="60" width="90" height="30" as="geometry" />
        </mxCell>
        <mxCell id="ZeIxtWrp5TI6K73QWDRL-29" value="" style="group" vertex="1" connectable="0" parent="1">
          <mxGeometry x="430" y="480" width="90" height="90" as="geometry" />
        </mxCell>
        <mxCell id="ZeIxtWrp5TI6K73QWDRL-30" value="身份认证" style="rounded=0;whiteSpace=wrap;html=1;" vertex="1" parent="ZeIxtWrp5TI6K73QWDRL-29">
          <mxGeometry width="90" height="30" as="geometry" />
        </mxCell>
        <mxCell id="ZeIxtWrp5TI6K73QWDRL-31" value="Token管理" style="rounded=0;whiteSpace=wrap;html=1;" vertex="1" parent="ZeIxtWrp5TI6K73QWDRL-29">
          <mxGeometry y="30" width="90" height="30" as="geometry" />
        </mxCell>
        <mxCell id="ZeIxtWrp5TI6K73QWDRL-32" value="验证码验证" style="rounded=0;whiteSpace=wrap;html=1;" vertex="1" parent="ZeIxtWrp5TI6K73QWDRL-29">
          <mxGeometry y="60" width="90" height="30" as="geometry" />
        </mxCell>
        <mxCell id="ZeIxtWrp5TI6K73QWDRL-33" value="" style="group" vertex="1" connectable="0" parent="1">
          <mxGeometry x="540" y="480" width="90" height="90" as="geometry" />
        </mxCell>
        <mxCell id="ZeIxtWrp5TI6K73QWDRL-34" value="连接管理" style="rounded=0;whiteSpace=wrap;html=1;" vertex="1" parent="ZeIxtWrp5TI6K73QWDRL-33">
          <mxGeometry width="90" height="30" as="geometry" />
        </mxCell>
        <mxCell id="ZeIxtWrp5TI6K73QWDRL-35" value="交易录入" style="rounded=0;whiteSpace=wrap;html=1;" vertex="1" parent="ZeIxtWrp5TI6K73QWDRL-33">
          <mxGeometry y="30" width="90" height="30" as="geometry" />
        </mxCell>
        <mxCell id="ZeIxtWrp5TI6K73QWDRL-36" value="交易查询" style="rounded=0;whiteSpace=wrap;html=1;" vertex="1" parent="ZeIxtWrp5TI6K73QWDRL-33">
          <mxGeometry y="60" width="90" height="30" as="geometry" />
        </mxCell>
        <mxCell id="ZeIxtWrp5TI6K73QWDRL-37" value="" style="group" vertex="1" connectable="0" parent="1">
          <mxGeometry x="660" y="480" width="90" height="90" as="geometry" />
        </mxCell>
        <mxCell id="ZeIxtWrp5TI6K73QWDRL-38" value="配置管理" style="rounded=0;whiteSpace=wrap;html=1;" vertex="1" parent="ZeIxtWrp5TI6K73QWDRL-37">
          <mxGeometry width="90" height="30" as="geometry" />
        </mxCell>
        <mxCell id="ZeIxtWrp5TI6K73QWDRL-39" value="连接管理" style="rounded=0;whiteSpace=wrap;html=1;" vertex="1" parent="ZeIxtWrp5TI6K73QWDRL-37">
          <mxGeometry y="30" width="90" height="30" as="geometry" />
        </mxCell>
        <mxCell id="ZeIxtWrp5TI6K73QWDRL-40" value="调用管理" style="rounded=0;whiteSpace=wrap;html=1;" vertex="1" parent="ZeIxtWrp5TI6K73QWDRL-37">
          <mxGeometry y="60" width="90" height="30" as="geometry" />
        </mxCell>
        <mxCell id="ZeIxtWrp5TI6K73QWDRL-16" value="共识算法" style="rounded=0;whiteSpace=wrap;html=1;" vertex="1" parent="1">
          <mxGeometry x="180" y="640" width="90" height="30" as="geometry" />
        </mxCell>
        <mxCell id="ZeIxtWrp5TI6K73QWDRL-48" value="p2p网络" style="rounded=0;whiteSpace=wrap;html=1;" vertex="1" parent="1">
          <mxGeometry x="314" y="640" width="90" height="30" as="geometry" />
        </mxCell>
        <mxCell id="ZeIxtWrp5TI6K73QWDRL-49" value="账本存储" style="rounded=0;whiteSpace=wrap;html=1;" vertex="1" parent="1">
          <mxGeometry x="435" y="640" width="90" height="30" as="geometry" />
        </mxCell>
        <mxCell id="ZeIxtWrp5TI6K73QWDRL-50" value="智能合约" style="rounded=0;whiteSpace=wrap;html=1;" vertex="1" parent="1">
          <mxGeometry x="550" y="640" width="90" height="30" as="geometry" />
        </mxCell>
        <mxCell id="ZeIxtWrp5TI6K73QWDRL-51" value="----" style="rounded=0;whiteSpace=wrap;html=1;" vertex="1" parent="1">
          <mxGeometry x="660" y="640" width="90" height="30" as="geometry" />
        </mxCell>
        <mxCell id="ZeIxtWrp5TI6K73QWDRL-52" value="Fabric联盟链" style="text;html=1;strokeColor=none;fillColor=none;align=center;verticalAlign=middle;whiteSpace=wrap;rounded=0;" vertex="1" parent="1">
          <mxGeometry x="435" y="600" width="85" height="30" as="geometry" />
        </mxCell>
        <mxCell id="ZeIxtWrp5TI6K73QWDRL-53" value="网络" style="rounded=0;whiteSpace=wrap;html=1;" vertex="1" parent="1">
          <mxGeometry x="335" y="710" width="90" height="30" as="geometry" />
        </mxCell>
        <mxCell id="ZeIxtWrp5TI6K73QWDRL-54" value="存储" style="rounded=0;whiteSpace=wrap;html=1;" vertex="1" parent="1">
          <mxGeometry x="470" y="710" width="90" height="30" as="geometry" />
        </mxCell>
        <mxCell id="ZeIxtWrp5TI6K73QWDRL-55" value="计算" style="rounded=0;whiteSpace=wrap;html=1;" vertex="1" parent="1">
          <mxGeometry x="590" y="710" width="90" height="30" as="geometry" />
        </mxCell>
        <mxCell id="ZeIxtWrp5TI6K73QWDRL-58" value="计算机资源层" style="text;html=1;strokeColor=none;fillColor=none;align=center;verticalAlign=middle;whiteSpace=wrap;rounded=0;" vertex="1" parent="1">
          <mxGeometry x="195" y="710" width="85" height="30" as="geometry" />
        </mxCell>
        <mxCell id="ZeIxtWrp5TI6K73QWDRL-59" value="&lt;p style=&quot;line-height: 190%; font-size: 20px;&quot;&gt;展示层&lt;/p&gt;" style="text;html=1;strokeColor=none;fillColor=none;align=center;verticalAlign=middle;whiteSpace=wrap;rounded=0;" vertex="1" parent="1">
          <mxGeometry x="35" y="245" width="70" height="30" as="geometry" />
        </mxCell>
        <mxCell id="ZeIxtWrp5TI6K73QWDRL-62" value="&lt;p style=&quot;line-height: 190%; font-size: 20px;&quot;&gt;前后端接口层&lt;/p&gt;" style="text;html=1;strokeColor=none;fillColor=none;align=center;verticalAlign=middle;whiteSpace=wrap;rounded=0;" vertex="1" parent="1">
          <mxGeometry x="30" y="355" width="130" height="30" as="geometry" />
        </mxCell>
        <mxCell id="ZeIxtWrp5TI6K73QWDRL-63" value="&lt;p style=&quot;line-height: 190%; font-size: 20px;&quot;&gt;后台管理层&lt;/p&gt;" style="text;html=1;strokeColor=none;fillColor=none;align=center;verticalAlign=middle;whiteSpace=wrap;rounded=0;" vertex="1" parent="1">
          <mxGeometry x="25" y="487.5" width="110" height="30" as="geometry" />
        </mxCell>
        <mxCell id="ZeIxtWrp5TI6K73QWDRL-64" value="&lt;p style=&quot;line-height: 190%; font-size: 20px;&quot;&gt;区块链平台&lt;/p&gt;" style="text;html=1;strokeColor=none;fillColor=none;align=center;verticalAlign=middle;whiteSpace=wrap;rounded=0;" vertex="1" parent="1">
          <mxGeometry x="25" y="630" width="120" height="30" as="geometry" />
        </mxCell>
        <mxCell id="ZeIxtWrp5TI6K73QWDRL-65" value="&lt;p style=&quot;line-height: 190%; font-size: 20px;&quot;&gt;资源层&lt;/p&gt;" style="text;html=1;strokeColor=none;fillColor=none;align=center;verticalAlign=middle;whiteSpace=wrap;rounded=0;" vertex="1" parent="1">
          <mxGeometry x="30" y="710" width="70" height="30" as="geometry" />
        </mxCell>
        <mxCell id="ZeIxtWrp5TI6K73QWDRL-75" style="edgeStyle=orthogonalEdgeStyle;rounded=0;orthogonalLoop=1;jettySize=auto;html=1;exitX=0.5;exitY=1;exitDx=0;exitDy=0;" edge="1" parent="1" source="ZeIxtWrp5TI6K73QWDRL-62" target="ZeIxtWrp5TI6K73QWDRL-62">
          <mxGeometry relative="1" as="geometry" />
        </mxCell>
      </root>
    </mxGraphModel>
  </diagram>
</mxfile>
